<?xml version="1.0" encoding="UTF-8" standalone="no"?>
<!-- Created with Inkscape (http://www.inkscape.org/) -->

<svg
   xmlns:dc="http://purl.org/dc/elements/1.1/"
   xmlns:cc="http://creativecommons.org/ns#"
   xmlns:rdf="http://www.w3.org/1999/02/22-rdf-syntax-ns#"
   xmlns:svg="http://www.w3.org/2000/svg"
   xmlns="http://www.w3.org/2000/svg"
   xmlns:sodipodi="http://sodipodi.sourceforge.net/DTD/sodipodi-0.dtd"
   xmlns:inkscape="http://www.inkscape.org/namespaces/inkscape"
   width="90.260002"
   height="20.1"
   viewBox="0 0 23.881292 5.3181252"
   version="1.1"
   id="svg3696"
   inkscape:version="0.92.1 r15371"
   sodipodi:docname="logo-2018-white-long.svg">
  <defs
     id="defs3690" />
  <sodipodi:namedview
     id="base"
     pagecolor="#ffffff"
     bordercolor="#666666"
     borderopacity="1.0"
     inkscape:pageopacity="0.0"
     inkscape:pageshadow="2"
     inkscape:zoom="5.6"
     inkscape:cx="63.437922"
     inkscape:cy="18.122201"
     inkscape:document-units="px"
     inkscape:current-layer="layer1"
     showgrid="false"
     units="px"
     inkscape:window-width="1366"
     inkscape:window-height="705"
     inkscape:window-x="1912"
     inkscape:window-y="300"
     inkscape:window-maximized="1"
     showborder="true" />
  <metadata
     id="metadata3693">
    <rdf:RDF>
      <cc:Work
         rdf:about="">
        <dc:format>image/svg+xml</dc:format>
        <dc:type
           rdf:resource="http://purl.org/dc/dcmitype/StillImage" />
        <dc:title></dc:title>
      </cc:Work>
    </rdf:RDF>
  </metadata>
  <g
     inkscape:label="Layer 1"
     inkscape:groupmode="layer"
     id="layer1"
     transform="translate(0,-291.68186)">
    <path
       style="fill:#6ad6cb;fill-opacity:1;stroke-width:0.03619577"
       d="m 0,291.69176 v 5.24861 h 0.9583965 v -5.24861 z"
       id="rect4505"
       inkscape:export-xdpi="96"
       inkscape:export-ydpi="96"
       inkscape:connector-curvature="0" />
    <path
       inkscape:connector-curvature="0"
       style="fill:#6ad6cb;fill-opacity:1;stroke-width:0.04867061"
       d="m 2.6578646,291.69176 -1.8791762,2.72909 v 1.63572 l 3.0054536,-4.36481 z"
       id="path5099"
       inkscape:export-xdpi="96"
       inkscape:export-ydpi="96" />
    <path
       inkscape:connector-curvature="0"
       style="fill:#6ad6cb;fill-opacity:1;stroke-width:0.04867061"
       d="m 0.7786884,294.31192 v 1.16602 l 1.3573356,1.11645 0.3283952,-0.89597 z"
       id="path5132"
       inkscape:export-xdpi="96"
       inkscape:export-ydpi="96" />
    <path
       inkscape:connector-curvature="0"
       style="fill:#6ad6cb;fill-opacity:1;stroke-width:0.04867061"
       d="M 4.2323948,291.69176 2.30806,296.94221 h 1.0087593 l 1.9243348,-5.25045 z"
       id="path5158"
       inkscape:export-xdpi="96"
       inkscape:export-ydpi="96" />
    <path
       inkscape:connector-curvature="0"
       style="fill:#6ad6cb;fill-opacity:1;stroke-width:0.04867061"
       d="m 3.3276995,296.09543 -0.3103201,0.84678 h 0.2994399 l 0.3103201,-0.84668 z m 0.5989382,2e-4 -0.3103202,0.84662 h 2.785919 L 6.092209,296.09631 Z"
       id="path5139"
       inkscape:export-xdpi="96"
       inkscape:export-ydpi="96" />
    <path
       inkscape:connector-curvature="0"
       style="fill:#6ad6cb;fill-opacity:1;stroke-width:0.04867061"
       d="m 4.2982611,291.69176 1.5208313,4.14952 1.0093442,0.002 -1.5214163,-4.15104 z m 1.6143658,4.40472 0.3099689,0.84573 h 1.0087594 l -0.3093838,-0.84416 z"
       id="path5153"
       inkscape:export-xdpi="96"
       inkscape:export-ydpi="96" />
    <g
       aria-label="GREEN"
       transform="matrix(0.03315962,0,0,0.04315872,-0.80709574,289.46834)"
       style="font-style:normal;font-weight:normal;font-size:40px;line-height:1.25;font-family:sans-serif;letter-spacing:1.5916431px;word-spacing:0px;fill:#ffffff;fill-opacity:1;stroke:none"
       id="flowRoot5185">
      <path
         d="m 347.16992,124.91667 q 0,7.5 -3.5625,19.3125 -3.5625,11.71875 -13.78125,21 -10.125,9.28125 -24,9.28125 -43.03125,0 -43.03125,-61.875 0,-29.249999 11.15625,-44.718749 11.25,-15.5625 31.875,-15.5625 29.71875,0 35.90625,29.15625 l -22.21875,9.65625 q -0.65625,-15.75 -14.25,-15.75 -5.90625,0 -9.65625,3.75 -3.65625,3.65625 -4.78125,10.21875 -1.125,6.5625 -1.125,22.499999 0,18.75 1.21875,25.78125 1.21875,6.9375 4.96875,10.5 3.75,3.46875 9.75,3.46875 14.0625,0 15,-23.25 h -15.5625 v -22.6875 h 42.09375 z"
         style="font-style:normal;font-variant:normal;font-weight:bold;font-stretch:normal;font-size:192px;line-height:1.25;font-family:'Tw Cen MT Condensed';-inkscape-font-specification:'Tw Cen MT Condensed, Bold';letter-spacing:13.77999592px;fill:#ffffff"
         id="path6429" />
      <path
         d="m 451.98117,172.16667 h -25.875 l -20.34375,-57.9375 h -0.375 v 57.9375 H 380.16867 V 55.072921 h 32.90625 q 9.84375,0 19.59375,3.9375 9.84375,3.9375 13.96875,12.28125 4.21875,8.34375 4.21875,17.34375 0,10.875 -4.6875,17.906249 -4.6875,6.9375 -14.90625,12.65625 z m -46.59375,-64.5 q 12.375,0 15.65625,-4.78125 3.28125,-4.874999 3.28125,-12.281249 0,-16.78125 -13.78125,-16.78125 h -5.15625 z"
         style="font-style:normal;font-variant:normal;font-weight:bold;font-stretch:normal;font-size:192px;line-height:1.25;font-family:'Tw Cen MT Condensed';-inkscape-font-specification:'Tw Cen MT Condensed, Bold';letter-spacing:13.77999592px;fill:#ffffff"
         id="path6431" />
      <path
         d="M 541.22992,172.16667 H 482.82367 V 55.072921 h 54.75 v 22.59375 h -29.625 v 23.812499 h 25.40625 v 21.75 h -25.40625 v 25.875 h 33.28125 z"
         style="font-style:normal;font-variant:normal;font-weight:bold;font-stretch:normal;font-size:192px;line-height:1.25;font-family:'Tw Cen MT Condensed';-inkscape-font-specification:'Tw Cen MT Condensed, Bold';letter-spacing:13.77999592px;fill:#ffffff"
         id="path6433" />
      <path
         d="M 631.13492,172.16667 H 572.72867 V 55.072921 h 54.75 v 22.59375 h -29.625 v 23.812499 h 25.40625 v 21.75 h -25.40625 v 25.875 h 33.28125 z"
         style="font-style:normal;font-variant:normal;font-weight:bold;font-stretch:normal;font-size:192px;line-height:1.25;font-family:'Tw Cen MT Condensed';-inkscape-font-specification:'Tw Cen MT Condensed, Bold';letter-spacing:13.77999592px;fill:#ffffff"
         id="path6435" />
      <path
         d="m 744.47742,172.16667 h -26.71875 l -29.8125,-73.874999 h -0.375 v 73.874999 h -24.5625 V 54.885421 h 27.65625 l 29.34375,72.749999 h 0.46875 V 54.885421 h 24 z"
         style="font-style:normal;font-variant:normal;font-weight:bold;font-stretch:normal;font-size:192px;line-height:1.25;font-family:'Tw Cen MT Condensed';-inkscape-font-specification:'Tw Cen MT Condensed, Bold';letter-spacing:13.77999592px;fill:#ffffff"
         id="path6437" />
    </g>
  </g>
</svg>
